<svg xmlns="http://www.w3.org/2000/svg" width="22" height="21" viewBox="0 0 22 21">
	<path fill="#5c5c5c" d="M7.756 17.616c.937 0 1.696.711 1.696 1.65a1.7 1.7 0 0 1-1.696 1.707c-.937 0-1.645-.764-1.645-1.706 0-.94.708-1.65 1.645-1.65zm9.238 0c.936 0 1.696.736 1.696 1.678a1.7 1.7 0 0 1-1.696 1.705 1.7 1.7 0 0 1-1.696-1.705c0-.942.76-1.678 1.696-1.678zM3.163.05c1.723 0 1.689 1.665 1.689 1.665l.353 1.7 15.191-.022c1.514 0 1.598 1.621 1.598 1.621l-.008 5.954c0 1.625-1.607 1.658-1.607 1.658l-14.16.013.336 1.674h12.787c.462 0 .992-.254.992 1.26 0 1.302-.53 1.205-.992 1.205H5.198a.837.837 0 0 1-.835-.839c0-.369-2.136-13.426-2.136-13.426l-1.38.003C.847-.578 3.163.05 3.163.05zM5.746 6.76l.314 2.517c0 .463.373.84.834.84h11.77a.838.838 0 0 0 .835-.84V6.761a.836.836 0 0 0-.835-.838H6.58a.836.836 0 0 0-.835.838z" />
</svg>
